<svg xmlns="http://www.w3.org/2000/svg" viewBox="0 0 1024 127">
<path d="m 26.229399,23.671512 0,34.33141 51.809241,0 c 0,8.7389 -5.617873,14.35678 -11.235745,14.35678 l -45.567157,0 C 15.617869,72.359702 10,66.741822 10,61.123962 l 0,-39.94929 C 10,15.556802 15.617869,9.9389321 21.235738,9.9389321 l 45.567157,0 c 5.617872,0 11.235745,5.6178699 11.235745,13.7325799 l -51.809241,0 z"/>
<path d="m 101.95713,58.939232 0,-35.57983 39.32509,0 0,35.57983 m 15.29308,-35.26773 c 0,-6.86628 -6.86628,-13.7325699 -13.73257,-13.7325699 l -43.070327,0 c -8.114695,0 -13.732564,6.8662899 -13.732564,13.7325699 l 0,34.95563 c 0,8.1147 5.617869,13.73257 13.732564,13.73257 l 43.070327,0 c 6.86629,0 13.73257,-5.61787 13.73257,-13.73257 l 0,-34.95563 z"/>
<path d="m 181.86517,72.359702 c -6.86628,0 -13.73257,-6.86628 -13.73257,-13.73257 l 0,-48.6881999 c 7.49049,0 15.29309,5.7739199 15.29309,11.5478399 l 0,37.45246 39.32508,0 0,-49.0002999 14.98099,0 0,48.6881999 c 0,6.86629 -6.86629,13.73257 -13.73257,13.73257 l -42.13402,0 z"/>
<path d="m 311.53012,72.359702 -45.56716,-43.07033 0,43.07033 -14.98098,0 0,-62.4207699 c 7.49049,0 15.60519,0 25.59251,9.3631099 0,0 34.33142,31.8346 34.33142,31.8346 l 0,-28.71355 c 0,-6.24208 7.49049,-12.4841599 14.98099,-12.4841599 l 0,62.4207699 -14.35678,0 z"/>
<path d="m 374.00763,23.047292 0,49.31241 -14.98098,0 0,-49.31241 -27.46514,0 c 0,-6.55418 5.61787,-13.1083599 11.23574,-13.1083599 l 59.29972,0 c 0,6.5541799 -5.61783,13.1083599 -11.23577,13.1083599 l -16.85357,0 z"/>
<path d="m 423.27274,58.939232 c 0,0 45.87926,0 45.87926,0 0,6.71023 -5.61786,13.42047 -11.23573,13.42047 0,0 -49.93661,0 -49.93661,0 l 0,-62.4207699 61.17234,0 c 0,6.7102399 -5.61786,13.4204599 -11.23573,13.4204599 0,0 -34.64353,0 -34.64353,0 l 0,11.07969 38.38877,0 c 0,6.71024 -5.61787,13.42047 -11.23573,13.42047 0,0 -27.15304,0 -27.15304,0 l 0,11.07968 z"/>
<path d="m 550.12876,74.232322 c 0,0 -18.10202,0 -18.10202,0 -1.56052,0 -3.12104,-0.62421 -4.18219,-1.87262 0,0 -26.71605,-33.08301 -26.71605,-33.08301 0,0 24.34406,0 24.34406,0 1.24841,0 2.80893,-1.56052 2.80893,-2.80894 0,0 0,-10.61153 0,-10.61153 0,-1.24841 -1.56052,-2.80893 -2.80893,-2.80893 0,0 -32.1467,0 -32.1467,0 l 0,49.31241 -14.98098,0 0,0 0,-62.4207699 49.93661,0 c 7.49049,0 14.98098,7.4904999 14.98098,14.9809899 l 0,11.23573 c 0,7.4905 -7.49049,14.98099 -13.10836,14.98099"/>
<path d="m 626.98196,72.359702 c -6.86628,0 -13.73257,-6.71024 -13.73257,-13.42047 l 54.30607,0 0,-10.92363 -40.5735,0 c -6.86628,0 -13.73257,-6.55418 -13.73257,-13.10836 l 0,-11.54784 c 0,-6.71023 6.86629,-13.4204699 13.73257,-13.4204699 l 39.94929,0 c 7.17839,0 14.35677,6.7102399 14.35677,13.4204699 l -52.74554,0 0,10.92363 40.26139,0 c 7.02234,0 14.04467,7.64654 14.04467,15.29309 l 0,7.49049 c 0,7.64654 -7.02233,15.29309 -14.04467,15.29309 l -41.82191,0 z"/>
<path d="m 632.08775,104.96938 v 3.24357 h 5.62419 v 0.80346 c 0.0325,2.02848 -0.34536,3.27587 -1.13459,3.74203 -0.78922,0.4662 -2.18654,0.65714 -4.19202,0.57283 -2.31002,0.0774 -3.82015,-0.19651 -4.53069,-0.82205 -0.71046,-0.62552 -1.04519,-2.06752 -1.00433,-4.32596 v -5.11834 c -0.0557,-2.09982 0.24919,-3.487164 0.91512,-4.162294 0.66571,-0.6751 2.20573,-0.98383 4.6199,-0.9262 1.84928,-0.0694 3.20199,0.062 4.05826,0.3943 0.85599,0.3323 1.27879,1.28207 1.26835,2.849254 h 4.25543 c 0.0295,-2.342874 -0.37328,-4.001954 -1.20794,-4.977214 -0.83466,-0.9752 -1.98029,-1.55194 -3.43643,-1.73029 -1.45633,-0.17833 -3.10227,-0.24373 -4.9376,-0.19617 -2.29462,-0.0297 -4.166,0.17525 -5.61416,0.61498 -1.44824,0.43978 -2.51283,1.29282 -3.19405,2.55911 -0.68103,1.26636 -1.01829,3.124494 -1.01175,5.574524 v 5.11834 c -0.0129,2.48828 0.30859,4.36928 0.95886,5.64287 0.65016,1.27368 1.69732,2.12744 3.14113,2.56131 1.44373,0.43387 3.35037,0.6352 5.71997,0.60398 3.87656,0.0806 6.47156,-0.42282 7.78546,-1.51017 1.31356,-1.08739 1.92294,-3.2424 1.82696,-6.46482 l 0,-4.04697 h -9.90931 z"/>
<path d="m 656.05271,94.301176 h -4.35795 v 22.698464 h 14.94977 l 0,-3.72241 H 656.05271 V 94.301306 z"/>
<path d="m 684.01884,94.312766 c -3.49186,-0.0936 -5.94953,0.39869 -7.37311,1.47684 -1.42345,1.07819 -2.11038,3.304 -2.06086,6.677394 v 6.01148 c -0.0129,2.40981 0.29235,4.22997 0.91149,5.46036 0.61906,1.23045 1.62173,2.05416 3.00785,2.47115 1.38616,0.41702 3.22443,0.61028 5.51436,0.57978 3.35222,0.0918 5.78384,-0.434 7.2948,-1.57722 1.51092,-1.14329 2.25361,-3.45459 2.22819,-6.93408 l -2.3e-4,-6.01148 c 0,-2.35858 -0.34505,-4.125824 -1.04031,-5.301734 -0.69506,-1.17586 -1.7474,-1.95325 -3.15678,-2.33224 -1.40939,-0.37897 -3.18467,-0.55239 -5.32582,-0.52026 z m 0,3.66044 c 1.89029,-0.075 3.25061,0.14943 4.08076,0.67331 0.83009,0.52393 1.2157,1.797344 1.15683,3.820504 v 6.01147 c 0.0269,2.08996 -0.36019,3.43786 -1.15683,4.04359 -0.79679,0.60572 -2.15699,0.87482 -4.08076,0.80723 -2.08943,0.075 -3.48312,-0.17917 -4.18121,-0.7626 -0.69828,-0.58343 -1.02056,-1.94611 -0.96722,-4.08833 v -6.01149 c -0.0348,-1.73663 0.25789,-2.928234 0.87779,-3.574954 0.62004,-0.64663 2.04358,-0.95293 4.27064,-0.91883 z"/>
<path d="m 707.50047,107.10446 h 6.68507 c 1.25462,-0.0214 2.09541,0.20292 2.52218,0.67302 0.42658,0.47013 0.62451,1.31456 0.5936,2.5334 0,1.34102 -0.31252,2.18293 -0.94535,2.52574 -0.63276,0.34283 -1.59812,0.48903 -2.89632,0.43862 h -5.95918 v -6.17072 z m 7.32044,9.89142 c 2.37577,0.0505 4.11266,-0.3756 5.21047,-1.27802 1.0977,-0.90243 1.63978,-2.58372 1.62597,-5.04396 0.0417,-1.45633 -0.19233,-2.65753 -0.69961,-3.60347 -0.50727,-0.9459 -1.53449,-1.51936 -3.08165,-1.7204 v -0.12102 c 1.33921,-0.33777 2.22255,-0.93267 2.65061,-1.78473 0.42787,-0.85198 0.62326,-1.93092 0.58611,-3.23666 0,-2.429364 -0.55891,-4.036294 -1.67514,-4.820874 -1.11609,-0.78456 -2.78601,-1.14376 -5.01008,-1.07761 H 703.1446 v 22.686674 l 11.67631,0 z m -7.32044,-18.965444 h 6.14061 c 1.06944,-0.0428 1.85708,0.0882 2.36325,0.39323 0.50599,0.30503 0.75685,1.04108 0.75238,2.208234 0.0284,1.19106 -0.16441,2.02287 -0.57847,2.49552 -0.41421,0.47264 -1.21951,0.69952 -2.41617,0.68061 h -6.2616 v -5.777594 z"/>
<path d="m 744.59849,112.7025 1.47869,4.29714 h 4.41822 l -7.68676,-22.698464 h -6.41621 l -7.52291,22.698464 h 4.50954 l 1.42236,-4.29753 h 9.80589 z m -0.96847,-3.2988 h -7.83846 l 3.87388,-11.772974 h 0.0609 l 3.90417,11.772974 h 0 z"/>
<path d="m 763.22746,94.301176 h -4.35814 v 22.698464 h 14.94981 l 0,-3.72254 H 763.22617 V 94.301176 z"/>
<path d="m 806.02302,94.312756 c -3.49182,-0.0936 -5.94949,0.39868 -7.37303,1.47684 -1.42353,1.07819 -2.11046,3.304 -2.0609,6.677394 v 6.01149 c -0.0129,2.40981 0.29247,4.22996 0.91149,5.46036 0.61903,1.23045 1.62169,2.05415 3.008,2.47115 1.38612,0.41702 3.22439,0.61028 5.51444,0.57976 3.35233,0.0918 5.78395,-0.43399 7.29498,-1.57722 1.51085,-1.1433 2.25301,-3.45459 2.2277,-6.93408 v -6.01148 c 0,-2.35858 -0.34486,-4.125824 -1.03989,-5.301744 -0.6951,-1.17586 -1.7474,-1.95324 -3.15679,-2.33224 -1.40938,-0.37897 -3.18467,-0.55238 -5.326,-0.52025 z m 0,3.66044 c 1.89033,-0.075 3.25065,0.14944 4.08084,0.67331 0.83005,0.52393 1.21566,1.797474 1.15683,3.820504 v 6.01148 c 0.0265,2.09007 -0.36023,3.43785 -1.15683,4.04358 -0.79675,0.60575 -2.15707,0.87484 -4.08084,0.80724 -2.08947,0.075 -3.48315,-0.17917 -4.18136,-0.7626 -0.69805,-0.58342 -1.02045,-1.94612 -0.96714,-4.08834 v -6.01148 c -0.0348,-1.73664 0.25774,-2.928254 0.8779,-3.574964 0.61997,-0.64663 2.04354,-0.95293 4.2706,-0.91883 z"/>
<path d="m 829.69611,98.023726 h 10.65262 l 0,-3.72255 h -15.01076 v 22.698464 h 4.35811 v -9.38198 h 10.1083 v -3.57118 h -10.1083 v -6.022624 z"/>
<path d="m 853.52915,98.023726 h 10.65304 l 0,-3.72255 h -15.01084 v 22.698464 h 4.35811 v -9.38198 h 10.108 l 0,-3.57118 h -10.10831 v -6.022624 z"/>
<path d="m 877.09367,98.023726 h 11.19784 l 0,-3.72255 h -15.55549 v 22.698464 h 15.64635 v -3.72254 h -11.28832 v -6.02262 h 10.62284 v -3.57118 h -10.62284 v -5.659444 z"/>
<path d="m 914.63329,113.2771 h -0.1206 l -9.7149,-18.975924 h -7.20306 v 22.698464 h 4.35811 l -0.36318,-18.975914 h 0.15144 l 9.65441,18.975914 h 7.23362 V 94.301176 h -4.35863 l 0.36317,18.975924 z"/>
<path d="m 927.85935,109.69595 1.1e-4,1.04169 c 0.0254,2.09162 0.46551,3.57973 1.32495,4.46431 0.8594,0.8846 1.9933,1.41367 3.40178,1.58733 1.40836,0.17363 2.94792,0.23975 4.61864,0.19843 1.91598,0.0321 3.52061,-0.0917 4.81374,-0.37148 1.29309,-0.27982 2.2672,-0.9085 2.92227,-1.88604 0.65489,-0.97755 0.98239,-2.49695 0.98379,-4.5581 0.0185,-1.86165 -0.22706,-3.23107 -0.74019,-4.10827 -0.51314,-0.87725 -1.40825,-1.4619 -2.68515,-1.75375 -1.2771,-0.29192 -3.05189,-0.49068 -5.32412,-0.59635 -2.1057,-0.075 -3.46734,-0.28211 -4.085,-0.62128 -0.61763,-0.33915 -0.89285,-1.16384 -0.82592,-2.474 -0.0597,-1.158234 0.23122,-1.922094 0.8743,-2.291774 0.64294,-0.3695 1.99838,-0.53817 4.06628,-0.50594 1.48127,-0.0464 2.52172,0.0689 3.12138,0.34599 0.5995,0.27718 0.88842,0.9952 0.86682,2.154014 v 0.7143 h 4.28573 v -0.7143 c -0.0178,-1.920024 -0.39563,-3.308264 -1.1333,-4.164574 -0.73762,-0.85629 -1.72818,-1.38681 -2.97175,-1.59174 -1.24369,-0.20482 -2.63337,-0.29007 -4.16899,-0.25574 -1.80048,-0.0356 -3.39142,0.0555 -4.77303,0.27338 -1.38166,0.21792 -2.46559,0.77642 -3.25182,1.67553 -0.78628,0.89915 -1.18683,2.35272 -1.20143,4.360694 0.0166,2.1186 0.40588,3.62889 1.16613,4.53046 0.76032,0.90171 1.78834,1.45944 3.08427,1.67332 1.29597,0.21386 2.75604,0.34834 4.38065,0.40344 1.66792,0.002 2.92296,0.11725 3.76492,0.34598 0.84215,0.2288 1.26373,1.09564 1.26506,2.60045 0.0584,1.2705 -0.19294,2.1448 -0.75529,2.62276 -0.5624,0.47807 -1.78894,0.705 -3.67935,0.68082 -1.94265,0.0458 -3.28076,-0.0905 -4.01426,-0.40923 -0.7335,-0.3187 -1.082,-1.095 -1.04549,-2.32885 v -1.04169 h -4.28573 z"/>
<path d="m 959.83383,94.301176 h -4.35802 l 0,22.698464 h 4.35753 V 94.301176 z"/>
<path d="m 984.81508,94.301176 -6.053,19.066714 h -0.0907 l -6.05303,-19.066714 h -4.44894 l 7.27648,22.698464 h 6.56754 l 7.32396,-22.698464 h -4.50943 z"/>
<path d="m 1001.112,98.023726 h 11.1978 v -3.72255 h -15.55552 v 22.698464 h 15.64632 v -3.72254 h -11.2886 v -6.02262 h 10.6228 v -3.57118 h -10.6228 z"/>
<path d="m 727.38466,23.047302 0,49.3124 -14.98102,0 0,-49.3124 -25.90458,0 c 0,-6.55419 5.61787,-13.1083699 11.23574,-13.1083699 l 56.17869,10e-6 c 0,6.5541699 -5.61787,13.1083599 -11.2357,13.1083599 l -15.29313,0 z"/>
<path d="m 830.73831,72.359702 c 0,0 -18.10202,0 -18.10202,0 -1.56052,0 -3.12104,-0.62421 -4.18219,-1.87263 0,0 -25.77978,-31.21038 -25.77978,-31.21038 0,0 24.3441,0 24.3441,0 1.24842,0 2.80894,-1.56052 2.80894,-2.80893 0,0 0,-10.61153 0,-10.61153 0,-1.24842 -1.56052,-2.80894 -2.80894,-2.80894 0,0 -32.14669,0 -32.14669,0 l 0,49.31241 -14.98098,0 0,0 0,-62.4207699 49.93661,0 c 7.49049,0 14.98098,7.4904999 14.98098,14.9809899 l 0,11.23573 c 0,7.4905 -7.49049,14.98099 -13.10836,14.98099"/>
<path d="m 857.96701,72.359702 -15.60519,0 0,-62.4207699 15.60519,0 0,62.4207699 z"/>
<path d="m 892.12819,47.079292 -2.05989,0 0,25.28041 -14.79372,0 0,-62.4207699 14.79372,0 0,23.9071599 2.05989,0 29.96196,-23.9071599 21.84727,0 -34.64352,30.2740699 40.57349,32.1467 -24.6562,0 -33.083,-25.28041 z"/>
<path d="m 968.12074,58.939232 c 0,0 45.87926,0 45.87926,0 0,6.71023 -5.6179,13.42047 -11.2357,13.42047 0,0 -49.93665,0 -49.93665,0 l 0,-62.4207699 61.17235,0 c 0,6.7102399 -5.6179,13.4204599 -11.2357,13.4204599 0,0 -34.64356,0 -34.64356,0 l 0,11.07969 38.38876,0 c 0,6.71024 -5.6179,13.42047 -11.23573,13.42047 0,0 -27.15303,0 -27.15303,0 l 0,11.07968 z"/>
<path d="m 594.33401,46.823932 -34.04769,0 0,-11.34923 34.04769,0 0,11.34923 z"/>
</svg>